<?xml version="1.0" encoding="utf-8"?>
<!-- Generator: Adobe Illustrator 24.1.2, SVG Export Plug-In . SVG Version: 6.00 Build 0)  -->
<svg version="1.1" id="Layer_1" xmlns="http://www.w3.org/2000/svg" xmlns:xlink="http://www.w3.org/1999/xlink" x="0px" y="0px"
	 width="475px" height="484.1px" viewBox="0 0 475 484.1" style="enable-background:new 0 0 475 484.1;" xml:space="preserve">
<style type="text/css">
	.st0{fill:#5A5A5A;}
	.st1{enable-background:new    ;}
</style>
<g>
	<g>
		<path class="st0" d="M110.2,293.1c-15.1-22.8-26.6-50.7-33.5-74.8l-59-19.1l0.5-61.5l-18,18L0,217.2l58.9,19.1
			c6.8,26.1,19.8,54.8,35.8,78.6L110.2,293.1z"/>
		<polygon class="st0" points="81.5,346.2 66.8,367.5 112.7,414 133.2,398.9 		"/>
		<path class="st0" d="M279.2,466.2l-19.3-61.9c-25.3-7.2-50.2-18.8-71.5-32.9l-22,15.6c23.4,15.9,49.8,28.5,75.5,35.3l19.3,61.8
			l61.4-0.1l18-17.7L279.2,466.2L279.2,466.2z"/>
	</g>
	<path class="st0" d="M475,255.2l-13.9-49l-37.1-14c-8.8-20.3-20-39.4-33.7-56.9l12.6-26.6l-37.3-37.1l-26.3,12.8
		c-17.5-13.5-36.6-24.9-56.7-33.5l-14.3-37.6L220.1,0l-2.9,34.3c-21-1.6-40.7,0.7-58.4,6.6L116.5,8.4L76.1,31.9l31.5,42.6
		c-13,14.9-20.1,33.3-24.7,55.3l-55.4-1.1v61.5l58.6,19.1c7.1,27.2,18.6,54,35.7,78.6l-32.9,47.6l55.1,55.9l46.8-33
		c24.5,17.2,51,29.5,78.2,36.6l19.3,61.4h61.4l-1.5-58.3c22-4.8,40.6-14.2,55.3-27.5l43.2,32.2l23.1-41.4l-33.2-43.1
		c5.6-18,6.8-38.2,4.9-59.6L475,255.2z M299.9,339.6c-79.3-5.9-155.1-82.1-161.3-161.8c-5.6-72.1,50-112,118.4-96.2
		c63.1,14.4,122.3,73.4,137.6,137C411.2,288,372,344.9,299.9,339.6z"/>
	<g>
		<path class="st0" d="M95,74.2L69,39L55.9,58.1l26.6,36C86.1,87.1,90.2,80.4,95,74.2z"/>
	</g>
	<g>
		<path class="st0" d="M401.4,384.6c-6.2,4.8-16.3,10.5-23.5,14.1l41.8,31l18-18L401.4,384.6z"/>
	</g>
	<g>
		<g class="st1">
			<g>
				<path class="st0" d="M268.9,236.5l-11-72.4l16.7,3.3c4.9,1,9.4,2.7,13.6,5.1c4.1,2.4,7.9,5.3,11.2,8.8c3.3,3.5,6.1,7.5,8.3,11.9
					c2.2,4.4,3.9,9.3,4.8,14.5c1,5.2,1,9.8,0.3,13.9c-0.7,4.1-2.2,7.5-4.4,10.3c-2.3,2.8-5.3,4.8-9,6s-8.1,1.5-13.2,0.8L268.9,236.5
					 M269.8,138.7l-47-10.7l18.3,138.6l50.4,5c9.5,0.9,17.8-0.1,24.8-2.7c6.9-2.6,12.5-6.8,16.7-12.2c4.1-5.4,6.8-11.9,8.1-19.5
					c1.2-7.5,1-15.9-0.9-25.1c-1.8-9-5-17.6-9.2-25.5s-9.5-15.1-15.5-21.5c-6.1-6.4-13.1-12-20.7-16.5
					C287.1,144.1,278.7,140.7,269.8,138.7"/>
			</g>
		</g>
	</g>
</g>
</svg>
