<?xml version="1.0" encoding="UTF-8"?>
<svg width="173px" height="53px" viewBox="0 0 173 53" version="1.1" xmlns="http://www.w3.org/2000/svg" xmlns:xlink="http://www.w3.org/1999/xlink">
    <title>414A2504-C95A-46CC-AB87-E487FE21D863</title>
    <defs>
        <polygon id="path-1" points="0 0 27.4920383 0 27.4920383 49.4588281 0 49.4588281"></polygon>
        <polygon id="path-3" points="0 0 14.1751006 0 14.1751006 17 0 17"></polygon>
    </defs>
    <g id="UI" stroke="none" stroke-width="1" fill="none" fill-rule="evenodd">
        <g id="Crowdsec_HP4_XL-1600-fluid" transform="translate(-86.000000, -68.000000)">
            <g id="Group-29" transform="translate(-1.000000, 50.000000)">
                <g id="Group-12" transform="translate(87.000000, 18.000000)">
                    <g id="Group-41">
                        <g id="Group-3" transform="translate(12.709982, 0.000000)">
                            <mask id="mask-2" fill="white">
                                <use xlink:href="#path-1"></use>
                            </mask>
                            <g id="Clip-2"></g>
                            <path d="M7.77439386,49.4588281 C14.5854779,49.4588281 20.1661752,39.0024167 21.5478082,26.1655615 C22.9942313,26.1423264 24.1862856,25.0856538 24.4331545,23.6982478 C24.4604455,23.5452312 24.4794034,23.3892841 24.4827367,23.2291504 C24.5116943,23.2322903 24.5404436,23.2366861 24.5700262,23.2383607 C25.6068759,23.2925759 26.4912294,22.4919078 26.5451864,21.4500973 C26.5808105,20.76393 26.246027,20.1460026 25.7179149,19.7872196 C26.7626811,19.3202155 27.4920383,18.2698227 27.4920383,17.0467367 C27.4920383,15.5462952 26.3947734,14.3066726 24.9631416,14.0852067 C25.2118856,13.7649395 25.3610486,13.3632448 25.3610486,12.9257556 C25.3610486,11.8962953 24.5410686,11.0608792 23.5217184,11.0389001 C24.0150397,10.7916873 24.4458626,10.4199261 24.729189,9.97364519 C25.4297969,8.87029315 25.5418775,3.89484737 23.0533965,0.697408083 C22.0277965,-0.62050208 21.0230293,0.173886273 20.9594892,1.07335577 C20.7644939,3.82556079 20.7405362,5.89390106 20.0299285,8.24964454 C19.8847237,7.35143099 19.1114092,6.66484501 18.176432,6.66484501 C17.5770716,6.66484501 17.0443763,6.94764308 16.700218,7.38659759 C16.4877232,5.93890593 15.2496284,4.82634359 13.7496649,4.82634359 C12.2469932,4.82634359 11.0070234,5.94288311 10.7980702,7.39476127 C10.4541202,6.9512016 9.9187166,6.66484501 9.31581463,6.66484501 C8.38083742,6.66484501 7.6073146,7.35122167 7.46231814,8.24964454 C6.75171045,5.89390106 6.7277527,3.82556079 6.53296578,1.07335577 C6.46921734,0.173886273 5.46424183,-0.62050208 4.43864183,0.697408083 C1.95036913,3.89484737 2.06244974,8.87029315 2.76284933,9.97364519 C3.04638409,10.4199261 3.47720692,10.7916873 3.97031991,11.0389001 C2.95096975,11.0608792 2.13098973,11.8962953 2.13098973,12.9257556 C2.13098973,13.3632448 2.28036109,13.7649395 2.5288967,14.0852067 C1.09747325,14.3066726 0,15.5462952 0,17.0467367 C0,18.2698227 0.729565553,19.3202155 1.77433176,19.7872196 C1.24621963,20.1460026 0.911227792,20.76393 0.946851924,21.4500973 C1.00080894,22.4919078 1.88516239,23.2925759 2.92201212,23.2383607 C2.95180306,23.2366861 2.98034403,23.2322903 3.00930166,23.2291504 C3.01263491,23.3832136 3.03075947,23.5332997 3.05617552,23.6808738 C3.29866961,25.0925615 4.51801489,26.167864 5.99235396,26.167864 C5.99464557,26.167864 5.99652053,26.1676547 5.99881214,26.1676547 C5.17299893,29.7594623 3.90365486,40.04025 2.87847152,49.4527577 C2.93638677,48.9193976 3.06138372,48.3828977 3.12054895,47.8453511 C4.59738796,48.8890455 6.11964252,49.4588281 7.77439386,49.4588281" id="Fill-1" fill="#F7AA13" mask="url(#mask-2)"></path>
                        </g>
                        <path d="M26.4999583,52.0827588 C30.3011157,52.0827588 33.9906091,52.1428351 37.5126066,52.2556613 C37.4207339,51.3859159 37.3265695,50.5023551 37.2309468,49.6097933 C36.8549143,46.1052743 36.4782568,42.3721723 36.0932662,38.8703745 C35.4274491,33.2558595 34.7718401,28.4085206 34.2576859,26.1656033 C32.8760529,39.0024586 27.2955639,49.45887 20.4844799,49.45887 C18.8295203,49.45887 17.307474,48.8890874 15.8304267,47.845393 C15.7712615,48.3829395 15.6464728,48.9194395 15.5883493,49.4527996 C15.4850184,50.4008325 15.3956456,51.3388178 15.3100227,52.2615224 C18.8855606,52.1449283 22.6350525,52.0827588 26.4999583,52.0827588" id="Fill-4" fill="#F29219"></path>
                        <path d="M14.9844265,24.0224712 C14.417357,23.9052492 13.9150775,23.608845 13.5367534,23.1948002 C13.1503045,23.2789489 12.7663555,23.3905191 12.3855315,23.5357906 C11.5957591,23.8368 10.7664043,23.8301016 9.96725709,23.5370466 C9.00707215,23.1849619 8.02105452,23.0114315 7.00253767,22.9923829 C5.62048802,22.966636 4.25885454,23.092231 2.90451255,23.5133929 C2.90451255,23.9789316 2.89513778,24.3988376 2.91117905,24.8176969 C2.91513729,24.9206848 2.99701029,25.0236727 3.05263394,25.1210088 C3.18763065,25.3569181 3.36929289,25.5750347 3.4578324,25.8268527 C3.65907749,26.3989379 3.79532417,26.9940489 3.99552762,27.566762 C4.21843886,28.2039473 4.68613579,28.6219693 5.34861965,28.7084206 C6.11860088,28.8088965 6.90191513,28.881951 7.67627125,28.8589252 C8.1668843,28.8444818 8.60062373,28.7350048 8.96915641,28.5250519 C9.19623421,27.5994167 9.47206082,26.6892717 9.91184177,25.8098974 C10.516202,24.6012548 11.4838868,24.5497609 12.1372042,25.8098974 C12.555319,26.6164266 12.8217709,27.4543545 13.0361406,28.3073539 C13.2613435,28.497421 13.5317536,28.6284584 13.842996,28.7059087 C14.867346,28.9608665 15.8908627,28.9602385 16.9256292,28.7398193 C17.0975,28.7031874 17.2545795,28.6514842 17.399576,28.5870121 C17.5051984,27.9565252 17.6083209,27.3794162 17.7076934,26.8738963 C16.3648095,26.5113454 15.3019187,25.4297632 14.9844265,24.0224712" id="Fill-6" fill="#F7AA13"></path>
                        <path d="M11.4088678,30.5604025 C11.4180342,31.1356276 11.4017846,31.7072941 11.3553274,32.2701691 C11.2982455,32.9592669 11.2688712,33.6468995 11.1628321,34.2907832 C11.0876256,34.7466931 10.9674202,34.765951 10.8861722,34.2907832 C10.7767999,33.651086 10.7505505,32.9592669 10.6936769,32.2701691 C10.6472197,31.7072941 10.6309701,31.1356276 10.6401365,30.5604025 C9.89452969,30.3623811 9.30287745,29.6019034 9.13017332,28.6264489 C9.65974375,28.9431576 10.3151444,29.1307128 11.0245022,29.1307128 C11.7340682,29.1307128 12.3890522,28.9431576 12.918831,28.6264489 C12.7459185,29.6019034 12.1542663,30.3623811 11.4088678,30.5604025 M14.0981772,33.6812288 C14.0310955,32.8374398 13.8948489,31.9988839 13.6863123,31.167445 C13.4459015,30.2091552 13.2727807,29.2487721 13.0363281,28.3074376 C12.82175,27.4542289 12.5552982,26.6165103 12.1371834,25.8099811 C11.483866,24.5498446 10.5161812,24.6011292 9.91182094,25.8099811 C9.47203999,26.6891461 9.19621338,27.5995005 8.96934391,28.5251356 C8.75539079,29.3965555 8.58476995,30.2813723 8.3624837,31.167445 C8.15394711,31.9988839 8.01770043,32.8374398 7.95082706,33.6812288 C7.84687126,34.9888821 8.69768386,36.1160972 9.76744946,36.1160972 L12.2815549,36.1160972 C13.3513204,36.1160972 14.202133,34.9888821 14.0981772,33.6812288" id="Fill-8" fill="#FEFEFE"></path>
                        <path d="M9.13027749,28.6264907 C9.30298161,29.6019452 9.89463386,30.3622136 10.6402407,30.5604444 C10.6308659,31.1354601 10.6471155,31.707336 10.6935727,32.2702109 C10.7506547,32.9593088 10.776904,33.6509186 10.8862764,34.2908251 C10.967316,34.7659928 11.0877298,34.7467349 11.162728,34.2908251 C11.268767,33.6469414 11.2983496,32.9593088 11.3552233,32.2702109 C11.4016805,31.707336 11.4179301,31.1354601 11.408972,30.5604444 C12.1543705,30.3622136 12.7460227,29.6019452 12.9187268,28.6264907 C12.3891564,28.9431995 11.733964,29.1307547 11.024398,29.1307547 C10.3150403,29.1307547 9.65984791,28.9431995 9.13027749,28.6264907" id="Fill-10" fill="#1D1A8B"></path>
                        <path d="M37.9277007,24.0223666 C37.6147916,25.4026556 36.5704421,26.4781674 35.2542242,26.8564177 C35.341097,27.3031172 35.4321365,27.8163821 35.5279675,28.395375 C35.7431706,28.5594858 36.0002476,28.6693814 36.2996153,28.7083159 C37.0695966,28.8090012 37.8529108,28.8818463 38.6270586,28.8590299 C39.11788,28.8445865 39.5516194,28.7349002 39.9201521,28.5251565 C40.1472299,27.5995214 40.4230565,26.689167 40.8628375,25.810002 C41.4671977,24.6011502 42.4348825,24.5498656 43.0881999,25.810002 C43.5061064,26.6165312 43.7727665,27.4542499 43.9871363,28.3074585 C44.2123392,28.4973163 44.4827492,28.6283537 44.7939917,28.705804 C45.8183417,28.9607618 46.8418584,28.9601339 47.8766249,28.739924 C48.6201484,28.5814649 49.1138864,28.1676294 49.3524222,27.4542499 C49.5278346,26.9294721 49.6828308,26.3971586 49.8253274,25.8621239 C49.9061587,25.5590214 49.9407412,25.2506856 50.2819829,25.100181 C50.3478146,25.0710848 50.389272,24.9199521 50.3919802,24.8236627 C50.4034383,24.3914065 50.3969801,23.9585224 50.3969801,23.4404431 C49.5601255,23.3043818 48.744312,23.1228971 47.9189155,23.0477494 C46.3654117,22.9062457 44.8273242,22.9673686 43.3365272,23.535686 C42.5467548,23.8369046 41.7171916,23.8302062 40.9180445,23.5371512 C40.4293064,23.3577597 39.9336934,23.225257 39.4305807,23.1354566 C39.0466317,23.5813188 38.5222695,23.8997021 37.9277007,24.0223666" id="Fill-12" fill="#F7AA13"></path>
                        <path d="M42.3597593,30.5604025 C42.3689258,31.1356276 42.3526762,31.7072941 42.306219,32.2701691 C42.2493453,32.9592669 42.2197627,33.6468995 42.1137236,34.2907832 C42.0385171,34.7466931 41.9183117,34.765951 41.8370637,34.2907832 C41.7278997,33.651086 41.7016504,32.9592669 41.6445684,32.2701691 C41.5981112,31.7072941 41.5818616,31.1356276 41.5912364,30.5604025 C40.8454212,30.3623811 40.2539773,29.6019034 40.0810648,28.6264489 C40.6106353,28.9431576 41.266036,29.1307128 41.9753937,29.1307128 C42.6849597,29.1307128 43.3399438,28.9431576 43.8695142,28.6264489 C43.6970184,29.6019034 43.1051578,30.3623811 42.3597593,30.5604025 M45.0490688,33.6812288 C44.9821954,32.8374398 44.8459487,31.9988839 44.6374121,31.167445 C44.396793,30.2091552 44.2236722,29.2487721 43.9872197,28.3074376 C43.7726415,27.4542289 43.5061897,26.6165103 43.0880749,25.8099811 C42.4347575,24.5498446 41.4672811,24.6011292 40.8627125,25.8099811 C40.4229315,26.6891461 40.1473132,27.5995005 39.9202354,28.5251356 C39.7064906,29.3965555 39.5356615,30.2813723 39.3135836,31.167445 C39.105047,31.9988839 38.9688003,32.8374398 38.9017186,33.6812288 C38.7977628,34.9888821 39.6485754,36.1160972 40.718341,36.1160972 L43.2324464,36.1160972 C44.302212,36.1160972 45.1530246,34.9888821 45.0490688,33.6812288" id="Fill-14" fill="#FEFEFE"></path>
                        <path d="M40.081169,28.6264907 C40.2538731,29.6019452 40.8455254,30.3622136 41.5911322,30.5604444 C41.5817574,31.1354601 41.598007,31.707336 41.6446726,32.2702109 C41.7015462,32.9593088 41.7277955,33.6509186 41.8371679,34.2908251 C41.9182076,34.7659928 42.0386213,34.7467349 42.1138278,34.2908251 C42.2198669,33.6469414 42.2492412,32.9593088 42.3063231,32.2702109 C42.352572,31.707336 42.3688216,31.1354601 42.3598635,30.5604444 C43.105262,30.3622136 43.6969142,29.6019452 43.8698267,28.6264907 C43.3400479,28.9431995 42.6848556,29.1307547 41.9754978,29.1307547 C41.2659318,29.1307547 40.6107394,28.9431995 40.081169,28.6264907" id="Fill-16" fill="#1D1A8B"></path>
                        <path d="M48.2324079,32.0536851 C48.6446895,33.8524148 49.17051,37.73958 49.7044553,42.2421606 C49.2369667,37.9916073 48.7536452,34.166821 48.2324079,32.0536851" id="Fill-18" fill="#F29219"></path>
                        <path d="M16.3316436,15.5171153 C18.0203525,14.9919189 19.7178111,14.8351344 21.4411025,14.8673705 C22.7112798,14.8910242 23.9404165,15.1072569 25.1378874,15.5464208 C26.1343214,15.9119022 27.1684629,15.9202752 28.1532305,15.5447462 C30.0119352,14.8361811 31.9298052,14.7599868 33.866633,14.9364477 C34.8959829,15.030016 35.9132498,15.2562963 36.9563493,15.4260589 C36.9563493,16.0720358 36.9648908,16.6116757 36.9503078,17.1506875 C36.9471829,17.2706308 36.8953092,17.4592326 36.8130195,17.4956551 C36.3876132,17.6832103 36.3444892,18.0677403 36.2438667,18.4455719 C36.0661627,19.1124814 35.8726257,19.7764603 35.6540894,20.4308102 C35.3570133,21.3202321 34.741195,21.8362182 33.8139259,22.0336117 C32.523749,22.3084554 31.2477385,22.3090834 29.9704779,21.991328 C29.2657034,21.8159137 28.72155,21.4299184 28.3978079,20.7581945 C28.0028175,19.9386871 27.6219935,19.1112254 27.1922123,18.310348 C27.0842983,18.1091867 26.820763,17.8900234 26.615143,17.8759986 C26.4488971,17.8646951 26.2011948,18.1150478 26.096614,18.3080454 C25.7841216,18.8849451 25.4851706,19.4756602 25.2518429,20.0881452 C24.7253974,21.4713647 23.690631,22.1405767 22.2812903,22.1822324 C21.3156888,22.2109099 20.3392543,22.1196442 19.3790694,21.9942586 C18.5530478,21.8864562 17.9697287,21.3654463 17.6918188,20.5708486 C17.4422416,19.8568411 17.2722457,19.114784 17.0214185,18.4014044 C16.9110045,18.0876262 16.6843434,17.815713 16.5164308,17.5214021 C16.4470575,17.3999936 16.3449767,17.2716774 16.3399768,17.1433612 C16.3197689,16.620886 16.3316436,16.0971548 16.3316436,15.5171153" id="Fill-20" fill="#1D1A8B"></path>
                        <path d="M29.7750244,25.0604092 C29.2037883,22.782744 28.9400447,20.4954497 27.8434048,18.38043 C27.0288413,16.8092366 25.8224123,16.8732901 25.0686807,18.38043 C24.0043317,20.5088465 23.7082972,22.782744 23.1370611,25.0604092 C22.8770675,26.0971959 22.7070716,27.1429836 22.623532,28.1946324 C22.4939518,29.8252741 23.5549676,31.2308914 24.8886851,31.2308914 L28.0234004,31.2308914 C29.3573262,31.2308914 30.4181337,29.8252741 30.2885535,28.1946324 C30.2050139,27.1429836 30.035018,26.0971959 29.7750244,25.0604092" id="Fill-22" fill="#FEFEFE"></path>
                        <path d="M28.8179018,21.8923173 C28.1575013,22.2871042 27.3406462,22.5209203 26.4560844,22.5209203 C25.5715226,22.5209203 24.7546675,22.2871042 24.094267,21.8923173 C24.3094701,23.1084955 25.0471604,24.0565284 25.9767211,24.3035319 C25.965263,25.0206793 25.9856792,25.7338496 26.0435945,26.435507 C26.1146344,27.2945767 26.1473419,28.157205 26.2835886,28.9549426 C26.3848361,29.5475417 26.5348325,29.52326 26.6283719,28.9549426 C26.7606603,28.1521812 26.7975344,27.2945767 26.8685744,26.435507 C26.9264896,25.7338496 26.9466974,25.0206793 26.9352394,24.3035319 C27.8648001,24.0565284 28.6024904,23.1084955 28.8179018,21.8923173" id="Fill-24" fill="#F7AA13"></path>
                        <path d="M6.23505638,50.7352082 C10.4064131,50.7352082 14.0021588,45.8447484 15.9625276,38.9485365 C16.425433,35.1882223 16.9366706,31.3527604 17.399576,28.5869493 C17.2545795,28.6514214 17.0975,28.703334 16.9256292,28.7397565 C15.8908627,28.9601757 14.867346,28.9608037 13.842996,28.7058459 C13.5317536,28.6283956 13.2613435,28.4973582 13.0361406,28.3072911 C13.2728015,29.2488349 13.4459223,30.2090086 13.6863331,31.1675078 C13.8948697,31.9987373 14.0311164,32.8375026 14.0981981,33.6810823 C14.2021539,34.9887356 13.3513413,36.11616 12.2815757,36.11616 L9.76747029,36.11616 C8.69770469,36.11616 7.8468921,34.9887356 7.9508479,33.6810823 C8.01772127,32.8375026 8.15396795,31.9987373 8.36250453,31.1675078 C8.58479078,30.2814351 8.75541162,29.3966183 8.96936474,28.5249891 C8.60062373,28.734942 8.1668843,28.844419 7.67606293,28.8590718 C6.90191513,28.8818882 6.11860088,28.8088338 5.34861965,28.7083578 C4.68613579,28.6219065 4.21843886,28.2038845 3.99552762,27.5666992 C3.79532417,26.9941954 3.65886916,26.3988751 3.45762407,25.8267899 C3.36929289,25.5749719 3.18742232,25.3570646 3.05263394,25.120946 C2.99701029,25.0236099 2.91513729,24.920622 2.91117905,24.8178434 C2.89513778,24.3987748 2.90451255,23.9788688 2.90451255,23.5135394 C4.25885454,23.0921682 5.62048802,22.9665732 7.00253767,22.9923201 C8.02105452,23.0113687 9.00707215,23.1848991 9.96725709,23.5369838 C10.7664043,23.8300388 11.5957591,23.8369465 12.3855315,23.5357278 C12.7663555,23.3906656 13.1503045,23.2788861 13.5367534,23.1949467 C13.1238468,22.7432234 12.8588533,22.1514616 12.8246874,21.4937625 C12.7959381,20.9400979 12.9315598,20.4077844 13.2038449,19.9525026 C12.3755317,19.2347272 11.8767939,18.1791012 11.8767939,17.046653 C11.8767939,16.4197247 12.0259569,15.8275442 12.2905338,15.3033945 C11.9240844,15.0735556 11.4918033,14.9393783 11.0274396,14.9393783 C9.82226062,14.9393783 8.82770153,15.8348706 8.66020561,16.9991362 C8.38417067,16.6434931 7.95480613,16.4138636 7.47127625,16.4138636 C6.72129453,16.4138636 6.10110131,16.9643883 5.98485414,17.6848849 C5.41486803,15.7955175 5.39570183,14.1366169 5.23945564,11.9294942 C5.18841522,11.207951 4.3823932,10.570975 3.55991324,11.6278569 C1.56412855,14.1922974 1.65391803,18.1826598 2.21577933,19.0674765 C2.44306546,19.4254222 2.78868204,19.7237104 3.18408907,19.9219411 C2.36660899,19.9395244 1.70912501,20.6095737 1.70912501,21.4351515 C1.70912501,21.7861895 1.82891376,22.1081314 2.02807557,22.3649731 C0.879978554,22.5426901 0,23.5367745 0,24.7401838 C0,25.7212901 0.584985743,26.5636139 1.42288199,26.9383056 C0.999350645,27.2259181 0.730815523,27.7215997 0.759356494,28.2719151 C0.802688771,29.1075405 1.51204648,29.7495403 2.34348455,29.7060007 C2.36723397,29.7047447 2.39015008,29.7011862 2.41348285,29.6986743 C2.41598279,29.8223854 2.43056576,29.9425379 2.45098193,30.0608065 C2.64556052,31.1932548 3.62345336,32.0556737 4.80592454,32.0556737 C4.80759117,32.0556737 4.80925779,32.0554644 4.81113275,32.0554644 C4.14864889,34.9359857 3.13075703,43.1815065 2.30848541,50.7303938 C2.35494261,50.3025335 2.4551485,49.8723706 2.50264734,49.4411611 C3.68720181,50.2782518 4.90779706,50.7352082 6.23505638,50.7352082" id="Fill-26" fill="#2F2BAE"></path>
                        <path d="M14.7600361,49.361513 C15.0254463,46.924342 15.4662689,42.9808685 15.9625068,38.9484318 C14.0021379,45.8446437 10.4066005,50.7351036 6.23503555,50.7351036 C4.90777623,50.7351036 3.68718097,50.2783564 2.50262651,49.4412658 C2.45512767,49.8722659 2.3551301,50.3024288 2.30846457,50.7302891 C2.22492494,51.4970465 2.15326002,52.2539657 2.08409504,53 C5.85358651,52.6885244 10.0205683,52.4465447 14.4704598,52.2897603 C14.5592077,51.3318891 14.6521221,50.3516202 14.7600361,49.361513" id="Fill-28" fill="#0F0C63"></path>
                        <g id="Group-32" transform="translate(35.528134, 11.068576)" fill="#2F2BAE">
                            <path d="M15.018384,19.0061504 C15.0402585,18.8834859 15.0556747,18.7585189 15.0581747,18.6302027 C15.0815074,18.6325053 15.1044236,18.6362731 15.128173,18.6375291 C15.9598194,18.6810687 16.6689688,18.0388596 16.712301,17.2034435 C16.740842,16.6529188 16.4723069,16.1574465 16.0489839,15.869834 C16.8866718,15.4949329 17.4718659,14.6528185 17.4718659,13.6717122 C17.4718659,12.4683028 16.591679,11.4742184 15.443582,11.2965015 C15.6427438,11.0396598 15.7627408,10.7175086 15.7627408,10.3666799 C15.7627408,9.54110213 15.1050485,8.87105282 14.2877768,8.8532602 C14.6829755,8.65523875 15.0285921,8.35674131 15.2558782,7.9990049 C15.8177395,7.11418815 15.9077373,3.12382579 13.9119526,0.559385284 C13.0894727,-0.497496611 12.2834506,0.139479346 12.2322019,0.860813276 C12.0759557,3.06814534 12.0569978,4.72704592 11.4868034,6.61620399 C11.3705562,5.89591668 10.750363,5.34518262 10.0003813,5.34518262 C9.51976799,5.34518262 9.09248674,5.57209092 8.8164518,5.92417556 C8.64624762,4.76304981 7.65314682,3.87090669 6.45005114,3.87090669 C5.95547986,3.87090669 5.49778268,4.02350461 5.1167503,4.28181165 C5.36653588,4.79423924 5.50715745,5.36967365 5.50715745,5.9781814 C5.50715745,7.1104203 5.00862793,8.16604624 4.18010646,8.88382165 C4.45239149,9.33910351 4.58801319,9.87141697 4.55926389,10.4250816 C4.52676468,11.0538939 4.28427059,11.6234672 3.90240489,12.0670268 C4.40551763,12.1568273 4.90113055,12.28933 5.39007697,12.4685122 C6.18922416,12.7615672 7.01857895,12.7682656 7.80835137,12.4672562 C9.29914837,11.8989389 10.8372359,11.837816 12.3907397,11.9791103 C13.2161362,12.054258 14.0319497,12.2357428 14.8688043,12.3720133 C14.8688043,12.8900927 14.8752625,13.3227675 14.8638044,13.7550236 C14.8613045,13.8513131 14.8196388,14.0026551 14.7538071,14.0317512 C14.4125654,14.1822559 14.3779829,14.4905916 14.2971516,14.7934849 C14.154655,15.3285196 13.9996588,15.8610423 13.8242464,16.3858201 C13.5857106,17.0991997 13.0919726,17.5130352 12.3484491,17.6712849 C11.3134743,17.8917041 10.2901659,17.8923321 9.26581585,17.6373742 C8.95457343,17.559924 8.68416336,17.4288866 8.45896051,17.2388195 C8.69562141,18.1803633 8.86874219,19.140537 9.109153,20.0988269 C9.31768958,20.9302657 9.45393626,21.769031 9.52101796,22.6126107 C9.62497376,23.9202639 8.77416116,25.047479 7.70439557,25.047479 L5.19029017,25.047479 C4.12052458,25.047479 3.26971198,23.9202639 3.37345945,22.6126107 C3.44054115,21.769031 3.57678783,20.9302657 3.78532441,20.0988269 C4.00761066,19.2129635 4.17823151,18.3279374 4.39218462,17.4565175 C4.02344361,17.6664704 3.58949585,17.7759474 3.09909114,17.7903908 C2.32473501,17.8134166 1.54142077,17.7403621 0.771439533,17.6398861 C0.472071828,17.6007424 0.21499476,17.4908468 0,17.326736 C0.63915109,21.1935966 1.48058892,28.0504554 2.59639506,38.4513957 C2.63535244,38.8139466 2.67493481,39.1844518 2.71514216,39.5603995 C7.69085423,38.5619193 11.668674,30.6077789 12.7042737,20.9851089 C13.8644538,20.966479 14.8202638,20.1189221 15.018384,19.0061504 Z" id="Fill-30"></path>
                        </g>
                        <path d="M50.6169956,50.8562399 C50.3155446,48.0454239 50.0134686,45.0512392 49.7045178,42.2423071 C49.1705725,37.7395172 48.644752,33.8525613 48.2324704,32.0536223 C47.1968706,41.6765017 43.2188425,49.6306421 38.2431305,50.628913 C38.3002124,51.1631104 38.3585443,51.7144724 38.4191679,52.286139 C42.8823924,52.4418768 47.0627072,52.6828098 50.8446984,52.9942854 C50.7701168,52.2909534 50.6942854,51.5782018 50.6169956,50.8562399" id="Fill-33" fill="#0F0C63"></path>
                        <path d="M37.5126691,52.2556822 C37.5343352,52.2563102 37.556418,52.2569381 37.5780842,52.2577754 C37.4860031,51.3874021 37.392047,50.503004 37.2960077,49.6096049 C36.9112254,46.0221932 36.5004021,42.303116 36.0933287,38.8703954 C36.4783193,42.3721933 36.8549768,46.1052952 37.230801,49.6096049 C37.3264236,50.502376 37.4207963,51.3859368 37.5126691,52.2556822" id="Fill-35" fill="#4E4A98"></path>
                        <path d="M34.2577484,26.1654987 C34.7719026,28.408416 35.4273033,33.2557549 36.0933287,38.8704792 C35.5104262,33.5699517 34.9077326,28.8004817 34.2577484,26.1654987" id="Fill-37" fill="#3E3977"></path>
                        <path d="M15.5883493,49.4526949 C15.4850184,50.4009371 15.3837709,51.3393411 15.2846067,52.262255 C15.2931481,52.2620457 15.3014813,52.261627 15.3100227,52.2614177 C15.3956456,51.3389224 15.4850184,50.4007278 15.5883493,49.4526949" id="Fill-39" fill="#3E3977"></path>
                    </g>
                    <g id="Group-2" transform="translate(63.000000, 17.000000)">
                        <path d="M15.7001977,14.362808 C14.9466946,15.1480067 14.012898,15.7756335 12.8992049,16.2464487 C11.785115,16.7174539 10.4827981,16.9529565 8.99265087,16.9529565 C7.48544617,16.9529565 6.17083204,16.7098509 5.04900683,16.2230695 C3.92698327,15.7366682 2.9933851,15.0968766 2.24801396,14.3038848 C1.50244448,13.5114632 0.941730217,12.6086081 0.565077799,11.5962701 C0.188028695,10.5837419 0,9.54783455 0,8.48816785 C0,7.42869122 0.188028695,6.38898237 0.565077799,5.36847107 C0.941730217,4.34814985 1.50244448,3.44168339 2.24801396,2.64869156 C2.9933851,1.85626995 3.92698327,1.21647836 5.04900683,0.729696943 C6.17083204,0.243485747 7.48544617,0 8.99265087,0 C10.4827981,0 11.785115,0.239304103 12.8992049,0.718102383 C14.012898,1.19690066 14.9466946,1.83650218 15.7001977,2.637097 L13.6608401,4.26166584 C13.1364225,3.69657362 12.4814955,3.24153469 11.6952659,2.8959788 C10.9090362,2.55080307 9.99150373,2.37802512 8.94346193,2.37802512 C7.55109754,2.37802512 6.38821543,2.67967374 5.45441891,3.28297098 C4.52082073,3.88645829 3.82047335,4.63839398 3.35377343,5.53896812 C2.88687517,6.43954226 2.65342604,7.41899741 2.65342604,8.47638321 C2.65342604,9.53414916 2.88687517,10.5134142 3.35377343,11.4139884 C3.82047335,12.3147526 4.52082073,13.0668784 5.45441891,13.6699855 C6.38821543,14.2734728 7.55109754,14.5747413 8.94346193,14.5747413 C9.97543799,14.5747413 10.8802765,14.4099465 11.6583741,14.0803569 C12.4362735,13.7505772 13.0874319,13.3115046 13.6118495,12.7618084 L15.6510088,14.3840963 L15.7001977,14.362808 Z" id="Fill-1" fill="#FFFFFF"></path>
                        <path d="M16.6828063,4.5914075 L19.1644678,4.5914075 L19.1644678,5.79210966 C19.4262799,5.5254348 19.7374793,5.29392376 20.0980659,5.09757655 C20.4582559,4.90141941 20.8432387,4.74441767 21.252816,4.62676141 C21.6619966,4.50891506 22.0797059,4.4266127 22.505944,4.37947416 C22.931587,4.33233563 23.3492963,4.32473264 23.7590719,4.3559049 L23.7590719,6.66322221 C22.8415395,6.58491142 22.0882346,6.63204996 21.4985624,6.8048279 C20.9088901,6.97760584 20.4419918,7.25207377 20.0980659,7.62861184 C19.75414,8.00553006 19.5121622,8.46094914 19.3731241,8.99448895 C19.2338876,9.52821883 19.1644678,10.1244833 19.1644678,10.7838526 L19.1644678,16.5526211 L16.6828063,16.5526211 L16.6828063,4.5914075 Z" id="Fill-3" fill="#FFFFFF"></path>
                        <path d="M29.9997404,6.16898986 C29.0822079,6.16898986 28.3205727,6.38890634 27.7146363,6.82816908 C27.1085016,7.26781196 26.6539006,7.81332648 26.3510316,8.46452255 C26.0477659,9.11628885 25.8966289,9.82659817 25.8966289,10.5954505 C25.8966289,11.3648731 26.0477659,12.0751824 26.3510316,12.7263785 C26.6539006,13.3779547 27.1085016,13.9236593 27.7146363,14.3627319 C28.3205727,14.8025649 29.0822079,15.0221012 29.9997404,15.0221012 C30.9168761,15.0221012 31.6785113,14.8025649 32.2848444,14.3627319 C32.8905824,13.9236593 33.3451834,13.3779547 33.6484491,12.7263785 C33.9513181,12.0751824 34.1028518,11.3648731 34.1028518,10.5954505 C34.1028518,9.82659817 33.9513181,9.11628885 33.6484491,8.46452255 C33.3451834,7.81332648 32.8905824,7.26781196 32.2848444,6.82816908 C31.6785113,6.38890634 30.9168761,6.16898986 29.9997404,6.16898986 M29.9997404,16.8116549 C28.5415262,16.8116549 27.3215215,16.5056346 26.3387344,15.8934038 C25.3559473,15.2811731 24.622675,14.5123208 24.139711,13.5858965 C23.6563503,12.6598523 23.410604,11.6631003 23.4026703,10.5954505 C23.3941415,9.52818082 23.6361194,8.53161893 24.1274138,7.60519463 C24.6189065,6.67934055 25.3517821,5.90991799 26.3264371,5.29768724 C27.3008939,4.68545649 28.5254605,4.37943615 29.9997404,4.37943615 C31.4740202,4.37943615 32.6981901,4.68545649 33.6730436,5.29768724 C34.6473019,5.90991799 35.3805742,6.67934055 35.8718686,7.60519463 C36.3633613,8.53161893 36.6047441,9.52818082 36.5968104,10.5954505 C36.5882817,11.6631003 36.3425353,12.6598523 35.8595713,13.5858965 C35.3762107,14.5123208 34.6435334,15.2811731 33.6607463,15.8934038 C32.6777609,16.5056346 31.4573594,16.8116549 29.9997404,16.8116549" id="Fill-5" fill="#FFFFFF"></path>
                        <polygon id="Fill-7" fill="#FFFFFF" points="49.5822943 13.632959 52.1867297 4.61486273 55.1104966 4.61486273 51.0319797 16.5760763 48.1080144 16.5760763 45.5281735 7.39337534 42.9483325 16.5760763 40.0245656 16.5760763 35.9458503 4.61486273 38.8696172 4.61486273 41.474251 13.632959 44.0784881 4.61486273 46.9286699 4.61486273"></polygon>
                        <path d="M61.4129289,6.16898986 C60.7268622,6.16898986 60.1268761,6.29462927 59.6123756,6.54552793 C59.0980735,6.79699682 58.669257,7.13076807 58.3263228,7.54627146 C57.9831903,7.96253515 57.7259401,8.43753194 57.5545721,8.97088167 C57.3830059,9.50480162 57.2973219,10.0461345 57.2973219,10.5954505 C57.2973219,11.1453367 57.3830059,11.6866696 57.5545721,12.2202094 C57.7259401,12.7541294 57.9831903,13.2291262 58.3263228,13.6446295 C58.669257,14.0608932 59.0980735,14.3944744 59.6123756,14.6455632 C60.1268761,14.8966519 60.7268622,15.0221012 61.4129289,15.0221012 C62.0985989,15.0221012 62.6989817,14.8966519 63.2134822,14.6455632 C63.7279826,14.3944744 64.1564024,14.0608932 64.4997333,13.6446295 C64.8424692,13.2291262 65.0997194,12.7541294 65.2712857,12.2202094 C65.4424552,11.6866696 65.5285359,11.1453367 65.5285359,10.5954505 C65.5285359,10.0461345 65.4424552,9.50480162 65.2712857,8.97088167 C65.0997194,8.43753194 64.8424692,7.96253515 64.4997333,7.54627146 C64.1564024,7.13076807 63.7279826,6.79699682 63.2134822,6.54552793 C62.6989817,6.29462927 62.0985989,6.16898986 61.4129289,6.16898986 L61.4129289,6.16898986 Z M65.5037431,0.0940109684 L68.0101973,0.0940109684 L68.0101973,16.5761523 L65.5037431,16.5761523 L65.5037431,14.8808757 C64.9795238,15.5248489 64.3527615,16.0110601 63.6240512,16.3408398 C62.8951424,16.6704294 62.1335072,16.8548019 61.3393438,16.8941474 C60.5443871,16.9331127 59.7585541,16.8192579 58.9806548,16.5525831 C58.2023588,16.2859082 57.5061766,15.8897924 56.8923065,15.3636655 C56.2778414,14.8377287 55.7780183,14.1745579 55.3934322,13.3739631 C55.008251,12.5733683 54.8160572,11.6473241 54.8160572,10.5954505 C54.8160572,9.5441471 55.0086477,8.61772279 55.3946222,7.81712797 C55.7800017,7.01653315 56.2806182,6.35374252 56.896075,5.82742555 C57.5113335,5.30186888 58.2089041,4.90556304 58.9883901,4.63831795 C59.7678762,4.37164308 60.5552959,4.25797839 61.3512444,4.29694371 C62.1473912,4.33628918 62.9106132,4.52066168 63.6407119,4.85044136 C64.371009,5.18003097 64.9985647,5.66662232 65.523974,6.3102154 L65.5037431,0.0940109684 Z" id="Fill-9" fill="#FFFFFF"></path>
                        <g id="Group-13" transform="translate(68.968152, 0.000000)">
                            <mask id="mask-4" fill="white">
                                <use xlink:href="#path-3"></use>
                            </mask>
                            <g id="Clip-12"></g>
                            <path d="M7.34640807,-9.50373721e-05 C8.67312109,0.0156811664 9.90165457,0.215829872 11.0318102,0.600161004 C12.1619658,0.985252436 13.1854131,1.48324827 14.1029455,2.09528894 L12.7272419,3.60239159 L12.4325049,3.93198119 C11.482246,3.22566344 10.5442843,2.74306367 9.6190165,2.48399179 C8.69355037,2.22491992 7.83353727,2.11885821 7.03917553,2.16599675 C6.24441711,2.21332536 5.55279679,2.38192166 4.96292618,2.67235586 C4.37345225,2.96298015 3.94721421,3.30796581 3.6854021,3.70845329 C3.42319331,4.10856063 3.35754194,4.52482432 3.48884468,4.95629399 C3.61975073,5.38833388 4.00473353,5.77684666 4.64359475,6.12183232 C5.34771064,6.49837039 6.15456795,6.81636544 7.06377,7.07543731 C7.9727737,7.33450919 8.86967852,7.61696026 9.75428609,7.92317067 C10.6388937,8.22919101 11.4453543,8.59812609 12.1744613,9.02978583 C12.9031717,9.46163565 13.4398865,10.0385125 13.7836141,10.7602263 C13.9962373,11.2158355 14.1235732,11.7062283 14.16463,12.231975 C14.2052903,12.7581019 14.12754,13.2956333 13.9311809,13.8449493 C13.7998782,14.2214874 13.6033208,14.5630517 13.3415087,14.8692621 C13.0791015,15.1752825 12.7764309,15.4459489 12.4325049,15.6814515 C11.7444548,16.1368706 10.9661588,16.4666503 10.098212,16.6704104 C9.22986851,16.8741705 8.40278026,16.9840337 7.61655056,17 C6.86284904,17 6.15456795,16.9488699 5.49131061,16.8469898 C4.82805328,16.7447296 4.19296057,16.587918 3.58722256,16.3759846 C2.98088952,16.1640513 2.38328355,15.8897734 1.79361128,15.5518205 C1.20374067,15.2146279 0.605738013,14.7947528 0,14.2921952 L1.35110915,12.8088519 L1.6952334,12.4321237 C2.71074703,13.2956333 3.71793027,13.9036824 4.71737816,14.2570314 C5.71623102,14.6100002 6.83825457,14.7789766 8.08344882,14.7632004 C8.73857412,14.7632004 9.35700605,14.6259664 9.93834794,14.3511184 C10.5196898,14.0766504 10.9582251,13.7388876 11.2529621,13.3385902 C11.5478974,12.9382928 11.6419117,12.5108147 11.5356001,12.0553956 C11.4288919,11.6001666 11.0318102,11.17649 10.34376,10.7837956 C9.86872972,10.5171207 9.29968507,10.2776265 8.63622939,10.0656932 C7.9727737,9.85394992 7.28492189,9.64201658 6.57247561,9.42989317 C5.85983099,9.2181499 5.15531841,8.98663886 4.45933456,8.73536005 C3.76295402,8.48446139 3.14075358,8.18205247 2.59193987,7.82870352 C2.04312615,7.47573472 1.60082236,7.06004126 1.26522684,6.58086283 C0.92923464,6.10225462 0.769568922,5.52537777 0.786229693,4.85042236 C0.802295436,4.04982754 1.00321639,3.35149293 1.3881992,2.75465823 C1.77278532,2.15820368 2.27260843,1.65621628 2.88687517,1.24774566 C3.50114191,0.839845257 4.19296057,0.533824919 4.96292618,0.329494569 C5.73269344,0.125734443 6.51098944,0.0234742309 7.29721913,0.0234742309 L7.34640807,-9.50373721e-05 Z" id="Fill-11" fill="#F7AA13" mask="url(#mask-4)"></path>
                        </g>
                        <path d="M94.7174124,9.67719942 C94.6352986,9.2061942 94.491897,8.75894833 94.2874059,8.33508165 C94.0823197,7.91121497 93.8121772,7.5346769 93.4765817,7.20489722 C93.1407878,6.87530761 92.7393426,6.61623574 92.2726427,6.42787167 C91.8057444,6.23950759 91.2775583,6.1454206 90.6878861,6.1454206 C90.0982138,6.1454206 89.5700277,6.23950759 89.1031294,6.42787167 C88.6362312,6.61623574 88.2345876,6.87530761 87.8991904,7.20489722 C87.5633966,7.5346769 87.2928574,7.91121497 87.0883663,8.33508165 C86.8832801,8.75894833 86.7400768,9.2061942 86.6583597,9.67719942 L94.7420069,9.67719942 L94.7174124,9.67719942 Z M90.6632916,14.998532 C91.465587,14.998532 92.1498687,14.8301257 92.7147481,14.4923629 C93.2800243,14.1551703 93.7260966,13.719519 94.0539567,13.185599 L95.8721625,14.5277168 C95.3316792,15.2026722 94.6271666,15.7483768 93.7592198,16.1640703 C92.8906779,16.5801439 91.8589002,16.7880857 90.6632916,16.7880857 C89.6638437,16.7880857 88.7796328,16.6430586 88.0098656,16.3524344 C87.2397016,16.0621902 86.5806095,15.6696859 86.0317957,15.1753015 C85.4827837,14.680727 85.0490086,14.1120233 84.7296772,13.4680501 C84.4101474,12.8248372 84.2012928,12.1576748 84.1031132,11.4667531 C84.0208011,10.8702986 84.0208011,10.2740341 84.1031132,9.67719942 C84.2012928,8.98665787 84.4101474,8.31968559 84.7296772,7.67590244 C85.0490086,7.03230935 85.4827837,6.46322557 86.0317957,5.96865108 C86.5806095,5.47426667 87.2397016,5.08214248 88.0098656,4.79151819 C88.7796328,4.50127406 89.6638437,4.35586688 90.6632916,4.35586688 C91.6623428,4.35586688 92.546752,4.50127406 93.3167176,4.79151819 C94.0864849,5.08214248 94.7457754,5.47426667 95.2947875,5.96865108 C95.8434028,6.46322557 96.2775746,7.03230935 96.5971043,7.67590244 C96.9164358,8.31968559 97.1252904,8.98665787 97.22347,9.67719942 C97.3053854,10.2740341 97.3053854,10.8702986 97.22347,11.4667531 L86.6583597,11.4667531 C86.7400768,11.9377583 86.8832801,12.3850042 87.0883663,12.8088709 C87.2928574,13.2327376 87.5633966,13.6092756 87.8991904,13.9390553 C88.2345876,14.2686449 88.6362312,14.5277168 89.1031294,14.7160809 C89.5700277,14.904445 90.0982138,14.998532 90.6878861,14.998532 L90.6632916,14.998532 Z" id="Fill-14" fill="#F7AA13"></path>
                        <path d="M107.887057,16.1523617 C107.018714,16.5760383 105.970672,16.7881617 104.742139,16.7881617 C103.284123,16.7881617 102.064118,16.4819513 101.081331,15.8699106 C100.098345,15.2576799 99.3650732,14.4886374 98.8823075,13.5622131 C98.3987485,12.6363591 98.1532005,11.6396071 98.1450684,10.5721473 C98.1365397,9.50468758 98.3785176,8.50793562 98.8698119,7.58170139 C99.3613047,6.65565724 100.09418,5.88623468 101.068835,5.274194 C102.043292,4.66196325 103.267859,4.35575284 104.742139,4.35575284 C105.970672,4.35575284 107.018714,4.56787625 107.887057,4.99155285 C108.755202,5.41541953 109.459715,5.97271868 110,6.66326023 L108.181794,8.02913734 C107.854132,7.47982133 107.403697,7.02839381 106.830685,6.67523494 C106.25688,6.32188599 105.560896,6.14549663 104.742139,6.14549663 C103.824606,6.14549663 103.062971,6.36541311 102.457035,6.80467584 C101.8509,7.24431872 101.396299,7.78983324 101.09343,8.44121939 C100.790164,9.09260553 100.638829,9.80310493 100.638829,10.5721473 C100.638829,11.3411898 100.790164,12.0516891 101.09343,12.7028852 C101.396299,13.3544614 101.8509,13.899976 102.457035,14.3394288 C103.062971,14.7788816 103.824606,14.998608 104.742139,14.998608 C105.560896,14.998608 106.25688,14.8220285 106.830685,14.4688697 C107.403697,14.1155207 107.854132,13.6644734 108.181794,13.1149673 L110,14.4806543 C109.459715,15.171576 108.755202,15.7286851 107.887057,16.1523617" id="Fill-16" fill="#F7AA13"></path>
                    </g>
                </g>
            </g>
        </g>
    </g>
</svg>